<svg width="233" height="30" viewBox="0 0 233 30" fill="none" xmlns="http://www.w3.org/2000/svg">
<path fill-rule="evenodd" clip-rule="evenodd" d="M232.239 16.6057H227.983C226.699 16.6057 225.766 16.9124 225.105 17.3892V16.6057H218.81C217.803 16.6057 216.622 16.8545 216.063 17.3892V16.6057H204.821V17.3892C203.927 16.7457 202.417 16.6057 201.72 16.6057H194.305V17.3892C193.597 16.7057 192.023 16.6057 191.064 16.6057H182.765L180.866 18.6547L179.088 16.6057H166.691V29.9931H178.854L180.811 27.9117L182.654 29.9931L190.152 29.9998V26.8504H190.889C191.884 26.8658 193.057 26.826 194.092 26.3798V29.9928H200.276V26.5037H200.575C200.955 26.5037 200.993 26.5192 200.993 26.8985V29.9925H219.779C220.971 29.9925 222.218 29.6882 222.908 29.1358V29.9925H228.867C230.107 29.9925 231.318 29.8192 232.239 29.3755C232.239 -43.8712 232.239 47.2736 232.239 16.6057Z" fill="#006FCF"/>
<path fill-rule="evenodd" clip-rule="evenodd" d="M154.35 13.4807L155.236 11.3502H157.22L158.103 13.4807H165.834V11.8518L166.525 13.4875H170.538L171.228 11.8275V13.4807H190.441L190.432 9.98341H190.804C191.064 9.99236 191.14 10.0163 191.14 10.4449V13.4807H201.077V12.6665C201.879 13.0948 203.125 13.4807 204.766 13.4807H208.946L209.841 11.3502H211.824L212.699 13.4807H220.755V11.4569L221.975 13.4807H228.431V0.102539H222.042V1.6825L221.147 0.102539H214.592V1.6825L213.77 0.102539H204.915C203.433 0.102539 202.13 0.308843 201.077 0.883651V0.102539H194.966V0.883651C194.297 0.291105 193.384 0.102539 192.369 0.102539H170.044L168.546 3.55794L167.007 0.102539H159.975V1.6825L159.203 0.102539H153.206L150.421 6.4633V13.4807H154.35Z" fill="#006FCF"/>
<path fill-rule="evenodd" clip-rule="evenodd" d="M190.991 24.8763C193.002 24.8763 194.996 24.3261 194.996 21.6609C194.996 19.0037 192.946 18.5 191.121 18.5H183.772L180.847 21.6449L178.018 18.5H168.769V28.0943H177.878L180.82 24.9183L183.652 28.0943H188.122V24.8763H190.991ZM188.122 22.9278H191.094C191.978 22.9278 192.527 22.4906 192.527 21.6609C192.527 20.8219 191.951 20.4846 191.121 20.4846H188.122V22.9278ZM176.713 26.0951H171.059V24.1861H176.108V22.2285H171.059V20.4843H176.825L179.34 23.2802L176.713 26.0951ZM185.832 27.2218L182.301 23.3137L185.832 19.5298V27.2218Z" fill="white"/>
<path fill-rule="evenodd" clip-rule="evenodd" d="M204.83 24.4411C204.634 24.1618 204.216 23.8241 203.704 23.6357C204.309 23.3962 205.333 22.6147 205.334 21.0834C205.334 19.9889 204.877 19.3899 204.152 18.9527C203.397 18.5513 202.549 18.5 201.385 18.5H196.075V28.0943H198.386V24.5902H200.844C201.683 24.5902 202.195 24.6723 202.531 25.0161C202.916 25.4177 202.909 26.1504 202.904 26.7135C202.903 26.776 202.903 26.8364 202.903 26.8941V28.0943H205.211V26.1924C205.202 25.3467 205.155 24.9097 204.83 24.4411ZM202.315 22.4418C202.007 22.6237 201.627 22.6393 201.179 22.6393H198.386V20.4846H201.217C201.627 20.4846 202.037 20.4932 202.315 20.6578C202.613 20.8131 202.791 21.1104 202.791 21.5209C202.791 21.9314 202.613 22.2621 202.315 22.4418Z" fill="white"/>
<path d="M223.066 23.0339C223.514 23.4959 223.754 24.0792 223.754 25.0667C223.754 27.1307 222.46 28.094 220.141 28.094H215.662V26.0367H220.123C220.559 26.0367 220.869 25.9792 221.062 25.7993C221.221 25.6508 221.334 25.4352 221.334 25.1735C221.334 24.894 221.211 24.672 221.053 24.5389C220.878 24.3925 220.635 24.3261 220.235 24.3261C220.094 24.3213 219.951 24.3173 219.806 24.3134C217.743 24.2575 215.391 24.1937 215.391 21.3565C215.391 19.9647 216.268 18.5 218.679 18.5H223.289V20.542H219.07C218.652 20.542 218.38 20.5576 218.149 20.7153C217.897 20.8707 217.803 21.1013 217.803 21.4057C217.803 21.7676 218.017 22.0137 218.307 22.1203C218.549 22.2044 218.81 22.229 219.202 22.229L220.44 22.2622C221.688 22.2927 222.545 22.508 223.066 23.0339Z" fill="white"/>
<path d="M232.239 20.5415H228.048C227.629 20.5415 227.351 20.557 227.117 20.7147C226.874 20.87 226.781 21.1006 226.781 21.405C226.781 21.767 226.986 22.0131 227.284 22.1197C227.526 22.2039 227.787 22.2283 228.17 22.2283L229.416 22.2617C230.674 22.2926 231.514 22.5082 232.026 23.0339C232.104 23.0957 232.156 23.1638 232.209 23.233L232.224 23.2517L232.233 23.2635L232.239 23.2714V26.8669C231.68 27.6813 230.592 28.0942 229.118 28.0942H224.677V26.0367H229.1C229.539 26.0367 229.846 25.9792 230.031 25.7993C230.191 25.6508 230.303 25.4352 230.303 25.1735C230.303 24.894 230.191 24.672 230.022 24.5389C229.855 24.3925 229.612 24.3261 229.212 24.3261C229.07 24.3213 228.927 24.3174 228.782 24.3134C226.711 24.2575 224.358 24.1939 224.358 21.3565C224.358 19.9649 225.245 18.5 227.658 18.5H232.239L232.239 20.5415Z" fill="white"/>
<path d="M206.609 18.5H214.285V20.4841H208.899V22.2285H214.153V24.1861H208.899V26.0949L214.285 26.1037V28.0943H206.609V18.5Z" fill="white"/>
<path fill-rule="evenodd" clip-rule="evenodd" d="M157.796 7.44331L156.222 3.61941L154.657 7.44331H157.796ZM192.471 5.92072C192.155 6.112 191.781 6.1184 191.333 6.1184H188.539V3.98776H191.371C191.772 3.98776 192.19 4.00581 192.462 4.16082C192.76 4.30065 192.945 4.59804 192.945 5.00889C192.945 5.42805 192.769 5.76539 192.471 5.92072ZM212.4 7.44331L210.809 3.61941L209.226 7.44331H212.4ZM175.25 11.5823H172.892L172.884 4.0699L169.549 11.5823H167.53L164.187 4.06318V11.5823H159.509L158.626 9.44292H153.838L152.945 11.5823H150.447L154.565 1.99023H157.982L161.893 11.0721V1.99023H165.647L168.656 8.49737L171.421 1.99023H175.25V11.5823H175.25ZM184.646 11.5823H176.964V1.99023H184.646V3.98776H179.264V5.71666H184.517V7.68286H179.264V9.59856H184.646V11.5823ZM195.478 4.57359C195.478 6.1029 194.454 6.89312 193.857 7.13026C194.361 7.32123 194.79 7.65857 194.995 7.93806C195.32 8.41523 195.376 8.84142 195.376 9.69812V11.5823H193.056L193.047 10.3728C193.047 9.7956 193.103 8.96543 192.685 8.50408C192.348 8.16674 191.836 8.09355 191.008 8.09355H188.54V11.5823H186.24V1.99023H191.529C192.705 1.99023 193.571 2.02124 194.314 2.44966C195.042 2.87825 195.478 3.50372 195.478 4.57359ZM199.158 11.5823H196.812V1.99023H199.158V11.5823ZM226.381 11.5823H223.122L218.763 4.38295V11.5823H214.079L213.184 9.44292H208.407L207.539 11.5823H204.848C203.73 11.5823 202.315 11.3359 201.513 10.5214C200.705 9.70707 200.285 8.6038 200.285 6.85956C200.285 5.437 200.536 4.13653 201.524 3.10885C202.268 2.34324 203.432 1.99023 205.017 1.99023H207.243V4.04561H205.064C204.224 4.04561 203.75 4.17009 203.294 4.61386C202.902 5.01768 202.633 5.78122 202.633 6.78669C202.633 7.81422 202.838 8.55522 203.265 9.03926C203.619 9.41878 204.263 9.534 204.868 9.534H205.901L209.142 1.99055H212.588L216.481 11.0633V1.99055H219.983L224.025 8.67091V1.99055H226.381V11.5823Z" fill="white"/>
<path d="M105.069 29.6274V27.6546C105.081 27.4887 105.057 27.3222 104.999 27.1663C104.941 27.0104 104.851 26.8685 104.734 26.7503C104.617 26.6321 104.476 26.5402 104.321 26.4807C104.165 26.4211 103.999 26.3955 103.833 26.4053C103.616 26.3911 103.399 26.4355 103.204 26.5338C103.01 26.6321 102.846 26.7808 102.728 26.9642C102.621 26.7862 102.469 26.6403 102.286 26.542C102.103 26.4436 101.897 26.3964 101.689 26.4053C101.509 26.3962 101.329 26.4345 101.167 26.5164C101.006 26.5983 100.868 26.7209 100.769 26.8721V26.4842H100.085V29.6274H100.775V27.8848C100.76 27.7772 100.77 27.6678 100.802 27.5642C100.834 27.4605 100.889 27.3654 100.963 27.2856C101.036 27.2057 101.127 27.1432 101.227 27.1024C101.328 27.0616 101.436 27.0436 101.545 27.0497C101.998 27.0497 102.229 27.3456 102.229 27.8782V29.6274H102.919V27.8848C102.905 27.7775 102.915 27.6684 102.948 27.5653C102.981 27.4622 103.036 27.3675 103.109 27.2879C103.182 27.2083 103.272 27.1458 103.372 27.1046C103.472 27.0634 103.58 27.0447 103.688 27.0497C104.155 27.0497 104.379 27.3456 104.379 27.8782V29.6274H105.069ZM115.288 26.4842H114.17V25.5307H113.48V26.4842H112.842V27.1089H113.48V28.5424C113.48 29.2722 113.762 29.7063 114.571 29.7063C114.873 29.7072 115.17 29.6229 115.426 29.4629L115.229 28.8777C115.045 28.9871 114.837 29.0482 114.624 29.0552C114.282 29.0552 114.17 28.8448 114.17 28.5292V27.1089H115.288V26.4842ZM121.12 26.4053C120.954 26.4004 120.789 26.4405 120.643 26.5215C120.497 26.6026 120.376 26.7214 120.292 26.8656V26.4842H119.615V29.6274H120.298V27.8651C120.298 27.3456 120.522 27.0562 120.969 27.0562C121.115 27.0543 121.261 27.0811 121.397 27.1352L121.607 26.4908C121.451 26.4349 121.286 26.4059 121.12 26.4053ZM112.303 26.7341C111.915 26.5039 111.47 26.3898 111.02 26.4053C110.225 26.4053 109.712 26.7867 109.712 27.4113C109.712 27.9243 110.093 28.2399 110.797 28.3385L111.119 28.3845C111.494 28.437 111.671 28.5357 111.671 28.7133C111.671 28.9566 111.421 29.0948 110.954 29.0948C110.579 29.1055 110.211 28.9897 109.909 28.7659L109.587 29.2986C109.985 29.5767 110.462 29.7197 110.948 29.7063C111.855 29.7063 112.381 29.2788 112.381 28.6804C112.381 28.1281 111.967 27.8387 111.283 27.7401L110.961 27.694C110.665 27.6546 110.428 27.5955 110.428 27.3851C110.428 27.1549 110.652 27.0168 111.027 27.0168C111.371 27.022 111.708 27.1148 112.007 27.2864L112.303 26.7341ZM130.622 26.4053C130.455 26.4004 130.29 26.4405 130.145 26.5215C129.999 26.6026 129.878 26.7214 129.794 26.8656V26.4842H129.116V29.6274H129.8V27.8651C129.8 27.3456 130.024 27.0562 130.471 27.0562C130.617 27.0542 130.762 27.0811 130.898 27.1352L131.109 26.4908C130.953 26.4349 130.788 26.4059 130.622 26.4053ZM121.811 28.0557C121.802 28.2772 121.839 28.498 121.92 28.7041C122.002 28.9103 122.126 29.0971 122.283 29.2525C122.441 29.408 122.63 29.5287 122.838 29.6069C123.045 29.685 123.266 29.7189 123.488 29.7063C123.898 29.7269 124.302 29.5932 124.619 29.3314L124.29 28.779C124.053 28.9593 123.765 29.0585 123.468 29.0618C123.212 29.0463 122.971 28.9335 122.795 28.7466C122.619 28.5596 122.521 28.3125 122.521 28.0558C122.521 27.799 122.619 27.552 122.795 27.365C122.971 27.178 123.212 27.0652 123.468 27.0497C123.765 27.053 124.053 27.1522 124.29 27.3325L124.619 26.7801C124.302 26.5184 123.898 26.3847 123.488 26.4053C123.266 26.3927 123.045 26.4266 122.838 26.5047C122.63 26.5828 122.441 26.7035 122.284 26.859C122.126 27.0144 122.002 27.2012 121.921 27.4073C121.839 27.6134 121.802 27.8343 121.811 28.0557ZM128.215 28.0557V26.4842H127.532V26.8656C127.415 26.7152 127.264 26.5949 127.091 26.5148C126.918 26.4347 126.729 26.3972 126.539 26.4053C126.115 26.4261 125.715 26.609 125.423 26.9163C125.13 27.2235 124.967 27.6315 124.967 28.0558C124.967 28.4801 125.13 28.888 125.423 29.1953C125.715 29.5026 126.115 29.6855 126.539 29.7063C126.729 29.7144 126.918 29.6768 127.091 29.5968C127.264 29.5166 127.415 29.3963 127.532 29.2459V29.6274H128.215V28.0557ZM125.671 28.0557C125.681 27.8702 125.746 27.6919 125.857 27.5428C125.967 27.3936 126.119 27.2801 126.294 27.2163C126.468 27.1525 126.658 27.1411 126.839 27.1836C127.019 27.2261 127.184 27.3206 127.312 27.4554C127.439 27.5902 127.525 27.7595 127.558 27.9424C127.59 28.1253 127.569 28.3137 127.496 28.4845C127.423 28.6553 127.301 28.801 127.146 28.9036C126.991 29.0062 126.81 29.0612 126.624 29.0618C126.494 29.0636 126.365 29.0383 126.245 28.9877C126.125 28.937 126.017 28.8621 125.927 28.7676C125.838 28.6731 125.768 28.561 125.724 28.4385C125.68 28.316 125.662 28.1857 125.671 28.0557ZM117.418 26.4053C116.992 26.4277 116.591 26.6145 116.299 26.9264C116.007 27.2382 115.848 27.6509 115.853 28.0779C115.859 28.505 116.031 28.913 116.331 29.2166C116.631 29.5202 117.037 29.6958 117.464 29.7063C117.934 29.7228 118.392 29.5659 118.753 29.2656L118.418 28.7594C118.158 28.9675 117.837 29.0832 117.504 29.0881C117.278 29.1071 117.053 29.0374 116.878 28.8939C116.702 28.7502 116.59 28.544 116.563 28.3188H118.898C118.904 28.2333 118.911 28.1478 118.911 28.0557C118.904 27.076 118.299 26.4053 117.418 26.4053ZM117.405 27.0168C117.612 27.0128 117.811 27.0908 117.961 27.2338C118.11 27.3768 118.196 27.5731 118.201 27.7796H116.57C116.582 27.5686 116.676 27.3706 116.832 27.2281C116.988 27.0855 117.194 27.0097 117.405 27.0168ZM134.561 28.0557V25.2217H133.877V26.8656C133.76 26.7152 133.609 26.5949 133.437 26.5148C133.264 26.4347 133.074 26.3972 132.884 26.4053C132.46 26.4261 132.061 26.609 131.768 26.9163C131.476 27.2235 131.313 27.6315 131.313 28.0558C131.313 28.4801 131.476 28.888 131.768 29.1953C132.061 29.5026 132.46 29.6855 132.884 29.7063C133.074 29.7144 133.264 29.6768 133.437 29.5968C133.609 29.5166 133.76 29.3963 133.877 29.2459V29.6274H134.561V28.0557ZM135.701 29.1718C135.743 29.1715 135.786 29.1799 135.825 29.1964C135.862 29.2121 135.897 29.2348 135.926 29.2633C135.955 29.2918 135.978 29.3256 135.994 29.3629C136.01 29.4012 136.019 29.4424 136.019 29.4841C136.019 29.5258 136.01 29.567 135.994 29.6053C135.978 29.6423 135.955 29.676 135.926 29.7044C135.897 29.7329 135.862 29.7558 135.825 29.7718C135.786 29.7884 135.743 29.797 135.701 29.7967C135.638 29.7973 135.577 29.7795 135.524 29.7454C135.472 29.7114 135.431 29.6626 135.406 29.6053C135.389 29.567 135.381 29.5257 135.381 29.4841C135.381 29.4424 135.389 29.4012 135.406 29.3629C135.422 29.3257 135.445 29.2919 135.474 29.2633C135.503 29.2346 135.537 29.2118 135.575 29.1964C135.615 29.1798 135.658 29.1715 135.701 29.1718ZM135.701 29.7278C135.733 29.728 135.765 29.7215 135.795 29.7086C135.824 29.6962 135.85 29.6785 135.872 29.6565C135.917 29.6107 135.943 29.5487 135.943 29.4842C135.943 29.4197 135.917 29.3578 135.872 29.3119C135.85 29.2899 135.824 29.2724 135.795 29.2603C135.765 29.2476 135.733 29.2412 135.701 29.2415C135.668 29.2412 135.635 29.2477 135.605 29.2603C135.576 29.2722 135.549 29.2898 135.527 29.3119C135.482 29.3577 135.456 29.4197 135.456 29.4842C135.456 29.5487 135.482 29.6107 135.527 29.6565C135.549 29.6787 135.576 29.6964 135.605 29.7086C135.635 29.7215 135.668 29.728 135.701 29.7278ZM135.719 29.338C135.75 29.336 135.781 29.3448 135.805 29.3629C135.815 29.371 135.823 29.3814 135.829 29.3932C135.834 29.4049 135.836 29.4178 135.836 29.4307C135.836 29.4417 135.834 29.4527 135.83 29.4628C135.826 29.4731 135.82 29.4823 135.812 29.4899C135.793 29.5068 135.768 29.5169 135.743 29.5187L135.838 29.6282H135.764L135.676 29.5194H135.647V29.6282H135.585V29.338H135.719ZM135.647 29.3924V29.4697H135.719C135.732 29.4704 135.746 29.467 135.758 29.4601C135.762 29.4569 135.766 29.4525 135.769 29.4473C135.771 29.4421 135.773 29.4364 135.772 29.4307C135.772 29.425 135.771 29.4194 135.769 29.4143C135.766 29.4093 135.762 29.405 135.758 29.4019C135.746 29.395 135.732 29.3917 135.719 29.3924H135.647ZM132.016 28.0557C132.027 27.8702 132.091 27.692 132.202 27.5428C132.313 27.3937 132.465 27.2802 132.639 27.2163C132.814 27.1525 133.003 27.1412 133.184 27.1837C133.365 27.2261 133.529 27.3206 133.657 27.4555C133.785 27.5904 133.87 27.7596 133.903 27.9425C133.936 28.1254 133.914 28.3138 133.841 28.4846C133.768 28.6554 133.647 28.801 133.492 28.9036C133.337 29.0062 133.155 29.0612 132.97 29.0618C132.839 29.0636 132.71 29.0383 132.59 28.9877C132.47 28.937 132.362 28.8621 132.273 28.7676C132.183 28.6731 132.114 28.561 132.07 28.4385C132.026 28.316 132.007 28.1857 132.016 28.0557ZM108.923 28.0557V26.4842H108.239V26.8656C108.122 26.7152 107.971 26.5949 107.798 26.5148C107.625 26.4347 107.436 26.3972 107.246 26.4053C106.822 26.4261 106.423 26.609 106.13 26.9163C105.837 27.2235 105.674 27.6315 105.674 28.0558C105.674 28.4801 105.837 28.888 106.13 29.1953C106.423 29.5026 106.822 29.6855 107.246 29.7063C107.436 29.7144 107.625 29.6768 107.798 29.5968C107.971 29.5166 108.122 29.3963 108.239 29.2459V29.6274H108.923V28.0557ZM106.378 28.0557C106.389 27.8702 106.453 27.692 106.564 27.5428C106.675 27.3937 106.827 27.2802 107.001 27.2163C107.176 27.1525 107.365 27.1412 107.546 27.1837C107.727 27.2261 107.891 27.3206 108.019 27.4555C108.147 27.5904 108.232 27.7597 108.265 27.9425C108.298 28.1254 108.276 28.3138 108.203 28.4846C108.13 28.6554 108.008 28.801 107.853 28.9036C107.699 29.0062 107.517 29.0612 107.331 29.0618C107.201 29.0636 107.072 29.0383 106.952 28.9877C106.832 28.937 106.724 28.8621 106.634 28.7676C106.545 28.6731 106.476 28.561 106.432 28.4385C106.387 28.316 106.369 28.1857 106.378 28.0557Z" fill="#231F20"/>
<path d="M122.433 2.53027H112.075V21.1439H122.433V2.53027Z" fill="#FF5F00"/>
<path d="M112.732 11.8378C112.731 10.0451 113.137 8.27562 113.92 6.66318C114.704 5.05075 115.844 3.6377 117.254 2.53091C115.507 1.15827 113.41 0.304649 111.202 0.0676097C108.993 -0.169437 106.762 0.219673 104.765 1.19045C102.767 2.16123 101.082 3.67451 99.904 5.55733C98.7255 7.44015 98.1006 9.61655 98.1006 11.8378C98.1006 14.059 98.7255 16.2354 99.904 18.1182C101.082 20.001 102.767 21.5142 104.765 22.485C106.762 23.4558 108.993 23.8449 111.202 23.6079C113.41 23.3709 115.507 22.5172 117.254 21.1446C115.844 20.0378 114.704 18.6248 113.92 17.0123C113.137 15.3999 112.731 13.6303 112.732 11.8378Z" fill="#EB001B"/>
<path d="M136.407 11.8378C136.407 14.0589 135.783 16.2353 134.604 18.1181C133.426 20.0009 131.742 21.5142 129.744 22.485C127.746 23.4558 125.515 23.8449 123.307 23.6079C121.098 23.3709 119.001 22.5172 117.255 21.1446C118.664 20.0367 119.803 18.6233 120.586 17.0112C121.369 15.399 121.776 13.6301 121.776 11.8378C121.776 10.0454 121.369 8.27644 120.586 6.66431C119.803 5.0521 118.664 3.63883 117.255 2.53091C119.001 1.15827 121.098 0.304645 123.307 0.0676054C125.515 -0.169434 127.746 0.219684 129.744 1.19047C131.742 2.16126 133.426 3.67451 134.604 5.55733C135.783 7.44023 136.407 9.61655 136.407 11.8378Z" fill="#F79E1B"/>
<path d="M135.278 19.1728V18.7917H135.431V18.7141H135.04V18.7917H135.194V19.1728H135.278ZM136.037 19.1728V18.7134H135.917L135.78 19.0294L135.641 18.7134H135.521V19.1728H135.606V18.8262L135.736 19.125H135.823L135.953 18.8255V19.1728H136.037Z" fill="#F79E1B"/>
<path d="M41.6341 0.581176L36.0164 26.7856H29.2215L34.8397 0.581176H41.6341ZM70.22 17.5016L73.7961 7.66142L75.8541 17.5016H70.22ZM77.8035 26.7856H84.0863L78.5974 0.581176H72.802C71.4959 0.581176 70.3947 1.33674 69.9074 2.50195L59.7123 26.7856H66.8481L68.2646 22.8721H76.9807L77.8035 26.7856ZM60.0662 18.2307C60.0956 11.3148 50.4841 10.9317 50.5485 7.84166C50.5692 6.90274 51.4671 5.9027 53.4295 5.64692C54.4024 5.52189 57.0872 5.42046 60.1306 6.81967L61.3208 1.2607C59.6863 0.670642 57.5827 0.102539 54.9654 0.102539C48.2483 0.102539 43.5232 3.6624 43.4854 8.76403C43.4422 12.5368 46.8607 14.6402 49.4309 15.8967C52.0808 17.181 52.9686 18.0044 52.9557 19.152C52.9374 20.91 50.8427 21.6885 48.8923 21.718C45.4743 21.7711 43.493 20.7963 41.9141 20.0619L40.6807 25.8067C42.2709 26.5327 45.2008 27.1646 48.2347 27.197C55.3759 27.197 60.0449 23.6789 60.0662 18.2307ZM31.925 0.581176L20.916 26.7856H13.7347L8.31666 5.87255C7.98822 4.58658 7.70173 4.11384 6.70283 3.57048C5.06891 2.68514 2.37171 1.85716 0 1.34198L0.160676 0.581176H11.7221C13.1948 0.581176 14.5197 1.55893 14.857 3.25161L17.7191 18.4164L24.7869 0.581176H31.925Z" fill="#1434CB"/>
</svg>
