<svg width="16" height="24" viewBox="0 0 16 24" fill="none" xmlns="http://www.w3.org/2000/svg">
<path d="M12.1618 3.50014L12.1611 0.75003C12.1611 0.336014 12.5912 0 13.1211 0C13.6511 0 14.0811 0.336014 14.0811 0.75003V3.50014H12.1618Z" fill="white"/>
<path d="M1.89592 23.9999H13.4626C13.8038 23.9999 14.0802 23.7839 14.0802 23.5174V2.48154C14.0802 2.21503 13.8038 1.99902 13.4626 1.99902H1.89592C1.5548 1.99902 1.27832 2.21503 1.27832 2.48154V23.5174C1.27832 23.7839 1.5548 23.9999 1.89592 23.9999Z" fill="white"/>
<path fill-rule="evenodd" clip-rule="evenodd" d="M3.67186 14.5009H11.6872C12.3029 14.5009 12.8015 14.1109 12.8015 13.6303V5.37151C12.8015 4.89049 12.3023 4.50098 11.6872 4.50098H3.67186C3.05618 4.50098 2.55762 4.89099 2.55762 5.37151V13.6303C2.55698 14.1114 3.05618 14.5009 3.67186 14.5009Z" fill="black"/>
<path fill-rule="evenodd" clip-rule="evenodd" d="M0 11.0006C2.33152 10.6506 3.7536 9.77654 4.48 8.50049C5.2064 9.77654 6.62848 10.6506 8.96 11.0006H0Z" fill="#F2F2F2"/>
<path fill-rule="evenodd" clip-rule="evenodd" d="M0 11.0007C2.73472 11.4342 4.14464 11.5007 7.04 11.5007C10.2886 11.5007 14.5357 10.5312 16 8.50057L10.24 6.50049C7.70432 9.06959 6.31168 11.0007 0 11.0007Z" fill="white"/>
</svg>
