<svg width="123" height="30" viewBox="0 0 123 30" fill="none" xmlns="http://www.w3.org/2000/svg">
<path d="M94.4313 6.70898H87.6317C87.1673 6.70898 86.7717 7.04708 86.6992 7.50636L83.9495 24.9399C83.8948 25.2837 84.1612 25.594 84.5081 25.594H87.9976C88.3215 25.594 88.5989 25.3574 88.6495 25.0354L89.4299 20.0935C89.5016 19.6332 89.8983 19.2954 90.3626 19.2954H92.5138C96.9931 19.2954 99.5769 17.1281 100.253 12.8336C100.558 10.9548 100.265 9.47855 99.3849 8.44458C98.4196 7.30935 96.7068 6.70898 94.4313 6.70898ZM95.2157 13.0762C94.845 15.5158 92.981 15.5158 91.1777 15.5158H90.1526L90.8735 10.9598C90.9162 10.6843 91.1528 10.4816 91.4321 10.4816H91.9024C93.129 10.4816 94.2883 10.4816 94.8867 11.1815C95.2435 11.599 95.3518 12.2193 95.2157 13.0762Z" fill="#179BD7"/>
<path d="M114.753 12.9981H111.499C111.22 12.9981 110.982 13.2008 110.94 13.4763L110.796 14.3869L110.568 14.0568C109.863 13.0338 108.292 12.6919 106.723 12.6919C103.126 12.6919 100.054 15.4168 99.4555 19.2391C99.1453 21.1458 99.5858 22.969 100.667 24.2405C101.661 25.4096 103.079 25.8967 104.768 25.8967C107.667 25.8967 109.274 24.0327 109.274 24.0327L109.129 24.9373C109.074 25.2833 109.341 25.5934 109.69 25.5934H112.621C113.086 25.5934 113.481 25.2555 113.554 24.795L115.314 13.6522C115.368 13.3093 115.102 12.9981 114.753 12.9981ZM110.215 19.3346C109.903 21.1945 108.424 22.443 106.541 22.443C105.598 22.443 104.841 22.1399 104.355 21.5652C103.874 20.9946 103.693 20.1826 103.845 19.278C104.14 17.4339 105.639 16.1444 107.493 16.1444C108.417 16.1444 109.169 16.4515 109.664 17.0313C110.162 17.6168 110.359 18.4338 110.215 19.3346Z" fill="#179BD7"/>
<path d="M118.592 7.1872L115.801 24.9399C115.746 25.2837 116.013 25.594 116.36 25.594H119.165C119.632 25.594 120.027 25.2559 120.099 24.7956L122.85 7.36309C122.905 7.01923 122.639 6.70801 122.292 6.70801H119.15C118.873 6.70897 118.634 6.91173 118.592 7.1872Z" fill="#179BD7"/>
<path d="M45.9381 6.70898H39.1394C38.6744 6.70898 38.2787 7.04708 38.206 7.50636L35.4564 24.9399C35.4017 25.2837 35.6682 25.594 36.0171 25.594H39.2628C39.7281 25.594 40.1237 25.2559 40.1962 24.7957L40.9379 20.0935C41.0094 19.6332 41.4061 19.2954 41.8704 19.2954H44.0225C48.5011 19.2954 51.0856 17.1281 51.7606 12.8336C52.0649 10.9548 51.7736 9.47855 50.8939 8.44458C49.9276 7.30935 48.2136 6.70898 45.9381 6.70898ZM46.7225 13.0762C46.3508 15.5158 44.4869 15.5158 42.6845 15.5158H41.6585L42.3784 10.9598C42.4211 10.6843 42.6596 10.4816 42.9379 10.4816H43.4083C44.6359 10.4816 45.7941 10.4816 46.3926 11.1815C46.7494 11.599 46.8588 12.2193 46.7225 13.0762Z" fill="#253B80"/>
<path d="M66.261 12.9981H63.0053C62.7279 12.9981 62.4882 13.2008 62.4454 13.4763L62.3015 14.3869L62.0738 14.0568C61.369 13.0338 59.7973 12.6919 58.2285 12.6919C54.6308 12.6919 51.5582 15.4168 50.9597 19.2391C50.6485 21.1458 51.091 22.969 52.1725 24.2405C53.1647 25.4096 54.5843 25.8967 56.2731 25.8967C59.172 25.8967 60.7794 24.0327 60.7794 24.0327L60.6343 24.9373C60.5795 25.2833 60.8459 25.5934 61.1929 25.5934H64.1256C64.5919 25.5934 64.9854 25.2555 65.059 24.795L66.8186 13.6522C66.8743 13.3093 66.6089 12.9981 66.261 12.9981ZM61.7227 19.3346C61.4086 21.1945 59.9324 22.443 58.0497 22.443C57.1043 22.443 56.3487 22.1399 55.8635 21.5652C55.3823 20.9946 55.1995 20.1826 55.3526 19.278C55.6458 17.4339 57.147 16.1444 59.0009 16.1444C59.9254 16.1444 60.677 16.4515 61.172 17.0313C61.6682 17.6168 61.865 18.4338 61.7227 19.3346Z" fill="#253B80"/>
<path d="M83.6003 12.9976H80.3288C80.0166 12.9976 79.7234 13.1528 79.5463 13.4122L75.0341 20.0587L73.1215 13.6716C73.0012 13.2721 72.6324 12.9976 72.2149 12.9976H69C68.6093 12.9976 68.3379 13.3793 68.462 13.7472L72.0657 24.3225L68.6777 29.1051C68.4114 29.4818 68.6799 29.9999 69.1401 29.9999H72.4076C72.7179 29.9999 73.0082 29.8487 73.1841 29.5941L84.0656 13.8873C84.326 13.5115 84.0586 12.9976 83.6003 12.9976Z" fill="#253B80"/>
<path d="M7.22309 28.982L7.74302 25.6798L6.58488 25.6529H1.05469L4.89789 1.28442C4.90982 1.21075 4.94859 1.14236 5.00525 1.09365C5.06192 1.04494 5.13449 1.01807 5.21005 1.01807H14.5347C17.6304 1.01807 19.7667 1.66211 20.8821 2.93363C21.405 3.53016 21.738 4.15333 21.899 4.83936C22.068 5.55899 22.071 6.41899 21.906 7.46784L21.8941 7.54438V8.21626L22.417 8.51261C22.8574 8.74608 23.2073 9.01363 23.4757 9.31982C23.923 9.82972 24.2122 10.4778 24.3346 11.2464C24.4608 12.0366 24.4191 12.977 24.2122 14.0417C23.9737 15.2664 23.588 16.3332 23.0671 17.206C22.5879 18.0103 21.9776 18.6771 21.2529 19.1942C20.561 19.6852 19.7388 20.0581 18.8094 20.2966C17.9087 20.5313 16.8818 20.6496 15.7555 20.6496H15.0298C14.5109 20.6496 14.0069 20.8365 13.6112 21.1715C13.2145 21.5134 12.9521 21.9806 12.8716 22.4917L12.8169 22.7888L11.8984 28.6094L11.8566 28.823C11.8457 28.8906 11.8268 28.9244 11.7989 28.9472C11.7741 28.9681 11.7383 28.982 11.7035 28.982H7.22309Z" fill="#253B80"/>
<path d="M22.9126 7.62158C22.8848 7.79963 22.8529 7.98152 22.8172 8.16844C21.5875 14.4819 17.3804 16.6629 12.0073 16.6629H9.27151C8.61441 16.6629 8.06069 17.1401 7.9583 17.7883L6.55761 26.6717L6.16096 29.1898C6.09435 29.6152 6.42242 29.9989 6.85187 29.9989H11.7041C12.2787 29.9989 12.7668 29.5814 12.8572 29.0146L12.9049 28.7682L13.8185 22.9706L13.8772 22.6524C13.9667 22.0837 14.4558 21.6662 15.0304 21.6662H15.7561C20.4571 21.6662 24.1373 19.7576 25.2128 14.2343C25.6623 11.9271 25.4297 10.0005 24.2408 8.64547C23.8808 8.23707 23.4345 7.89801 22.9126 7.62158Z" fill="#179BD7"/>
<path d="M21.6259 7.109C21.438 7.05429 21.2442 7.00462 21.0454 6.95975C20.8456 6.91608 20.6408 6.8772 20.43 6.84337C19.6924 6.72411 18.8842 6.66748 18.0183 6.66748H10.7097C10.5298 6.66748 10.3588 6.70827 10.2057 6.78194C9.86868 6.94391 9.61817 7.26305 9.5575 7.6537L8.00273 17.5012L7.95801 17.7885C8.0604 17.1404 8.61412 16.6633 9.27121 16.6633H12.007C17.3801 16.6633 21.5872 14.4812 22.8169 8.16865C22.8537 7.98172 22.8845 7.79983 22.9123 7.62179C22.6011 7.45694 22.2641 7.3156 21.9013 7.19538C21.8118 7.16563 21.7194 7.13684 21.6259 7.109Z" fill="#222D65"/>
<path d="M9.5573 7.65363C9.61793 7.26298 9.86845 6.94384 10.2054 6.78283C10.3595 6.70916 10.5295 6.66837 10.7095 6.66837H18.0181C18.884 6.66837 19.6922 6.725 20.4298 6.8445C20.6405 6.87809 20.8453 6.91697 21.0451 6.96064C21.244 7.00551 21.4378 7.05518 21.6257 7.10989C21.7191 7.13773 21.8116 7.16652 21.9021 7.19531C22.2649 7.31553 22.6019 7.45783 22.9131 7.62172C23.2789 5.28863 22.9101 3.70012 21.6486 2.26158C20.2578 0.677876 17.7477 0 14.5358 0H5.21107C4.55496 0 3.99529 0.477272 3.89388 1.12635L0.00992994 25.7453C-0.066616 26.2324 0.309154 26.6718 0.800241 26.6718H6.55708L8.00253 17.5012L9.5573 7.65363Z" fill="#253B80"/>
</svg>
